/* XPM */
static char *_f2d3b08ccf24901c18a792ceba274acTOzjPC9YNb4pTKiy[] = {
/* columns rows colors chars-per-pixel */
"64 64 183 2 ",
"   c None",
".  c #BD1D07",
"X  c #BE1D07",
"o  c #BE1E08",
"O  c #BE1E09",
"+  c #BE1F09",
"@  c #BE1F0A",
"#  c #BE200A",
"$  c #BE200B",
"%  c #BF200B",
"&  c #BF210B",
"*  c #BF210C",
"=  c #BF220C",
"-  c #BF220D",
";  c #BF230E",
":  c #BF240F",
">  c #C0240F",
",  c #C02410",
"<  c #C02510",
"1  c #C02511",
"2  c #C02611",
"3  c #C02712",
"4  c #C12713",
"5  c #C12813",
"6  c #C12814",
"7  c #C12915",
"8  c #C12A15",
"9  c #C12A16",
"0  c #C22C18",
"q  c #C22E1A",
"w  c #C32E1B",
"e  c #C32F1B",
"r  c #C3311D",
"t  c #C3311E",
"y  c #C4321F",
"u  c #C43320",
"i  c #C43420",
"p  c #C43421",
"a  c #C43522",
"s  c #C53522",
"d  c #C53623",
"f  c #C53724",
"g  c #C53825",
"h  c #C53826",
"j  c #C63A27",
"k  c #C63B28",
"l  c #C73D2A",
"z  c #C73E2C",
"x  c #C8412F",
"c  c #C94331",
"v  c #C94332",
"b  c #C94533",
"n  c #CA4837",
"m  c #CA4938",
"M  c #CB4A39",
"N  c #CB4C3B",
"B  c #CB4D3C",
"V  c #CC4D3D",
"C  c #CC4E3E",
"Z  c #CC4F3E",
"A  c #CD5140",
"S  c #CD5141",
"D  c #CD5242",
"F  c #CD5342",
"G  c #CD5343",
"H  c #CD5443",
"J  c #CD5444",
"K  c #CE5444",
"L  c #CE5544",
"P  c #CE5545",
"I  c #CE5646",
"U  c #CE5747",
"Y  c #CF5848",
"T  c #D05C4C",
"R  c #D05C4D",
"E  c #D05D4D",
"W  c #D05D4E",
"Q  c #D15F50",
"!  c #D26355",
"~  c #D3695A",
"^  c #D57062",
"/  c #D67062",
"(  c #D67365",
")  c #D67366",
"_  c #D77467",
"`  c #D77568",
"'  c #D8786B",
"]  c #D8786C",
"[  c #D87A6D",
"{  c #D97B6F",
"}  c #D97C6F",
"|  c #D97D71",
" . c #DA8074",
".. c #DA8175",
"X. c #DB8175",
"o. c #DB8276",
"O. c #DB8377",
"+. c #DC867A",
"@. c #DD8A7F",
"#. c #DD8B80",
"$. c #DE8D82",
"%. c #DF8F84",
"&. c #E09288",
"*. c #E0948A",
"=. c #E1978D",
"-. c #E29990",
";. c #E39E94",
":. c #E3A096",
">. c #E4A198",
",. c #E4A39A",
"<. c #E5A49B",
"1. c #E5A59C",
"2. c #E5A79E",
"3. c #E6A8A0",
"4. c #E6A9A1",
"5. c #E6AAA2",
"6. c #E7ABA3",
"7. c #E7ADA5",
"8. c #E8AEA6",
"9. c #E8AEA7",
"0. c #E8B0A8",
"q. c #E8B0A9",
"w. c #E8B1AA",
"e. c #E9B4AC",
"r. c #E9B4AD",
"t. c #EAB8B1",
"y. c #ECBDB6",
"u. c #ECBDB7",
"i. c #EDBFB9",
"p. c #EDC1BB",
"a. c #EEC3BD",
"s. c #EEC4BE",
"d. c #EEC5BF",
"f. c #EFC6C1",
"g. c #F0CAC5",
"h. c #F1CDC8",
"j. c #F1CFCA",
"k. c #F1CFCB",
"l. c #F2D1CC",
"z. c #F2D2CE",
"x. c #F2D3CF",
"c. c #F2D4D0",
"v. c #F3D5D1",
"b. c #F3D6D3",
"n. c #F3D7D3",
"m. c #F4D7D4",
"M. c #F4D8D4",
"N. c #F4D9D5",
"B. c #F4D9D6",
"V. c #F5DBD7",
"C. c #F5DCD8",
"Z. c #F5DCD9",
"A. c #F5DDDA",
"S. c #F5DEDB",
"D. c #F6E1DE",
"F. c #F7E2E0",
"G. c #F7E4E1",
"H. c #F7E4E2",
"J. c #F8E6E4",
"K. c #F8E8E6",
"L. c #F9EAE8",
"P. c #F9EAE9",
"I. c #F9ECEA",
"U. c #FAEDEB",
"Y. c #FAEEEC",
"T. c #FAEFED",
"R. c #FBF0EE",
"E. c #FBF0EF",
"W. c #FBF2F1",
"Q. c #FCF3F2",
"!. c #FCF4F3",
"~. c #FCF5F4",
"^. c #FCF6F5",
"/. c #FDF7F6",
"(. c #FDF8F7",
"). c #FDF8F8",
"_. c #FDF9F8",
"`. c #FDF9F9",
"'. c #FEFBFA",
"]. c #FEFCFC",
"[. c #FFFDFD",
"{. c #FFFEFE",
"}. c white",
/* pixels */
"                                                                                                                                ",
"                                                    - - - - - - - - - - - -                                                     ",
"                                            - - - - - - - - - - - - - - - - - - - -                                             ",
"                                        - - - - - - - - - - - - - - - - - - - - - - - -                                         ",
"                                    - - $ > $ > - - - - - - - - - - - - - - - - - - - - - -                                     ",
"                                > $ - - > $ > $ - - - - - - - - - - - - - - - - - - - - - - - -                                 ",
"                            - - $ > $ > $ > $ > - - - - - - - - - - - - - - - - - - - - - - - - - -                             ",
"                          - - - > $ > $ > $ > $ - - - - - - - - - - - - - - - - - - - - - - - - - - -                           ",
"                        - - - - $ > $ > $ > $ > > $ > $ > $ > $ - - - - - - - - - - - - - - - - - - - -                         ",
"                      - - - - - > $ > $ > $ > $ $ > $ > $ > $ > - - - - - - - - - - - - - - - - - - - - -                       ",
"                    - - - - - - $ > $ > $ > $ > > $ > $ > $ > $ - - - - - - - - - - - - - - - - - - - - - -                     ",
"                  - - - - - - - > $ > $ > $ > $ $ > $ > $ > $ > - - - - - - - - - - - - - - - - - - - - - - -                   ",
"                - - - - - - - - $ > $ > $ > $ > > $ > $ > $ > $ - - - - - - - - - - - - - - - - - - - - - - - -                 ",
"              - - - - - - - - - > $ > $ > $ > $ $ > $ > $ > $ > - - - - - - - - - - - - - - - - - - - - - - - - -               ",
"            - - - - - - - - - - $ > $ > $ > $ > $ > > $ > $ $ > - - - - - - - > - - - - - - - - - - - - - - - - - -             ",
"            - - - - - - - - - - > $ > $ > $ > % @ @ @ @ @ . > $ - - - - - - - $ @ @ @ @ @ @ @ @ - - - - - - - - - -             ",
"          - - - - - - - - - - - - - - - - - - l L L G G G L t > - - - - - - $ j L D L L L L L x - - - - - - - - - - -           ",
"          - - - - - - - - - - - - - - - - - , 7.`.^.^.^.^.J.Z @ - - - - - @ n h.^.^.^.^.^.(.x.D - - - - - - - - - - -           ",
"        - - - - - - - - - - - - - - - - - - a B.{.{.{.{.{.B.a $ - - - - @ N b.{.{.{.{.{.{.b.D $ - - - - - - - - - - - -         ",
"        - - - - - - - - - - - - - - - - - @ G Q.{.{.{.{.{.q.: - - - - $ D n.{.{.{.{.{.{.l.m @ - - - - - - - - - - - - -         ",
"      - - - - - - - - - - - - - - - - - - @ | {.{.{.{.{.{.X.@ - - - $ T S.{.{.{.{.{.{.f.c @ - - - - - - - - - - - - - - -       ",
"      - - - - - - - - - - - - - - - - - - - 6.{.{.{.{.{.!.L @ > - $ ~ J.{.{.{.{.{.{.i.l @ - - - - - - - - - - - - - - - -       ",
"    - - - - - - - - - - - - - - - - - - - r c.{.{.{.{.{.B.a - $ > ] Y.{.{.{.{.{.{.e.f $ - - - - - - - - - - - - - - - - - -     ",
"    - - - - - - - - - - - - - - - - - - @ B E.{.{.{.{.{.e.3 $ 5 @.^.{.{.{.{.{.{.6.r $ - - - - - - - - - - - - - - - - - - -     ",
"    - - - - - - - - - - - - - > 5 - @ @ @ _ {.{.{.{.{.{.+.. r ;.`.{.{.{.{.{.{.:.q $ > - - - - - - - - - - - - - - - - - - -     ",
"    - - - - - - - - - - - - - 3 -.1.( m q <.{.{.{.{.{.^.Y a w.{.{.{.{.{.{.`.&.6 $ - - - - - - - - - - - - - - - - - - - - -     ",
"  - - - - - - - - - - - - - - 6 f.{.{.U.z.P.{.{.{.{.{.A.Y f.{.{.{.{.{.{.W.X.: - - - - - - - - - - - - - - - - - - - - - - - -   ",
"  - - - - - - - - - - - - - - 6 a.{.{.{.{.{.{.{.{.{.{.D.B.{.{.{.{.{.{.K.^ : - - - - - - - - - - - - - - - - - - - - - - - - -   ",
"  - - - - - - - - - - - - - - 6 a.{.{.{.{.{.{.{.{.{.{.{.{.{.{.{.{.{.B.T $ - - - - - - - - - - - - - - - - - - - - - - - - - -   ",
"  - - - - - - - - - - - - - - 6 s.{.{.{.{.{.{.{.{.{.{.{.{.{.{.{.{.s.n @ > - - - - - - - - - - - - - - - - - - - - - - - - - -   ",
"  - - - - - - - - - - - - - - 6 s.{.{.{.{.{.{.{.{.{.{.{.{.{.{.`.6.a @ - - - - - - - - - - - - - - - - - - - - - - - - - - - -   ",
"  - - - - - - - - - - - - - - 3 e.{.{.{.{.{.{.{.{.{.{.{.{.{.{.D.c @ - - - - - - - - - - - - - - - - - - - - - - - - - - - - -   ",
"  - - - - - - - - - - - - - - - k ! $.l.{.{.{.{.{.{.{.{.{.{.{.{.q.e $ > - - - - > $ > $ > $ > $ > $ > $ > $ > $ > $ > $ > $ >   ",
"  - - - - - - - - - - - - - - - > @ . *.{.{.{.{.{.{.{.{.{.{.{.{.{.=.3 - - - - - $ > $ > $ > $ > $ > $ > $ > $ > $ > $ > $ > -   ",
"  - - - - - - - - - - - - - - - > @ 6 p.{.{.{.{.{.!.A.{.{.{.{.{.{.(._ $ - - - - > $ > $ > $ > $ > $ > $ > $ > $ > $ > $ - - -   ",
"  - - - - - - - - - - - - - - - > % l F.{.{.{.{.{.k.Z z.{.{.{.{.{.{.H.Z @ - - - $ > $ > $ > $ > $ > $ > $ > $ > $ > $ > - - -   ",
"  - - - - - - - - - - - - - - - $ @ T (.{.{.{.{.{.2.$ D F.{.{.{.{.{.{.a.e - - - > $ > $ > $ > $ > $ > $ > $ > $ - - - - - - -   ",
"  - - - - - - - - - - - - - - - > . $.{.{.{.{.{.{.] @ $ ( ^.{.{.{.{.{.{.$.- - - $ > $ > $ > $ > $ > $ > $ > $ > - - - - - - -   ",
"    - - - - - - - - - - - - - - - : t.{.{.{.{.{.T.Z @ $ 3 ,.{.{.{.{.{.{.P.L @ - > $ > $ > $ > $ > $ > $ > $ > $ - - - - - -     ",
"    - - - - - - - - - - - - - - - j A.{.{.{.{.{.b.t $ > - l n.{.{.{.{.{.{.y.0 $ $ > $ > $ > $ > $ > $ > $ > $ > - - - - - -     ",
"    - - - - - - - - - - - - - - @ Y ^.{.{.{.{.{.6.> > $ > . ^ `.{.{.{.{.{.]._ $ - - - - > $ > $ - - - - - - - - - - - - - -     ",
"    - - - - - - - - - - - - - - $ X.{.{.{.{.{.{.} @ $ > $ > 6 t.{.{.{.{.{.{.z.a $ - - - $ > $ > - - - - - - - - - - - - - -     ",
"      - - - - - - - - - - - - - : q.{.{.{.{.{.W.Z $ > $ > $ @ L W.{.{.{.{.{.{.X.@ > - - > $ > $ - - - - - - - - - - - - -       ",
"      - - - - - - - - - - - - - a M.{.{.{.{.{.B.t > $ > $ > > > 6.{.{.{.{.{.{.b.a $ - - $ > $ > - - - - - - - - - - - - -       ",
"        - - - - - - - - - - - @ D W.{.{.{.{.{.0.> $ > $ - - - @ D Y.{.{.{.{.{.{.] $ > $ > $ > $ - - - - - - - - - - - -         ",
"        - - - - - - - - - - - @ ] {.{.{.{.{.{.X.$ $ $ > - - - - : 7.{.{.{.{.{.{.g.r $ - $ > $ > - - - - - - - - - - - -         ",
"          - - - - - - - - - - - ,.`.^.W.^.^.P.D $ > - - - - - - @ T U.^.^.^.!.^.U.T @ - > $ > $ - - - - - - - - - - -           ",
"          - - - - - - - - - - - b L G D D L B 6 $ - - - - - - - - 6 B L D D D D H j $ > $ > $ > - - - - - - - - - - -           ",
"            - - - - - - - - - - $ @ @ @ @ @ @ - - - - - - - - - - - @ @ @ @ @ @ @ - - - - - - - - - - - - - - - - -             ",
"            - - - - - - - - - - - - - - - - - - - - - - - - - - - - - - - - - - - - - - - - - - - - - - - - - - - -             ",
"              - - - - - - - - - - - - - - - - - - - - - - - - - - - - - - - - - - - - - - - - - - - - - - - - - -               ",
"                - - - - - - - - - - - - - - - - - - - - - - - - - - - - - - - - - - - - - - - - - - - - - - - -                 ",
"                  - - - - - - - - - - - - - - - - - - - - - - - - - - - - - - - - - - - - - - - - - - - - - -                   ",
"                    - - - - - - - - - - - - - - - - - - - - - - - - - - - - - - - - - - - - - - - - - - - -                     ",
"                      - - - - - - - - - - - - - - - - - - - - - - - - - - - - - - - - - - - - - - - - - -                       ",
"                        - - - - - - - - - - - - - - - - - - - - - - - - - - - - - - - - - - - - - - - -                         ",
"                          - - - - - - - - - - - - - - - - - - - - - - - - - - - - - - - - - - - - - -                           ",
"                            - - - - - - - - - - - - - - - - - - - - - - - - - - - - - - - - - - - -                             ",
"                                - - - - - - - - - - - - - - - - - - - - - - - - - - - - - - - -                                 ",
"                                    - - - - - - - - - - - - - - - - - - - - - - - - - - - -                                     ",
"                                        - - - - - - - - - - - - - - - - - - - - - - - -                                         ",
"                                            - - - - - - - - - - - - - - - - - - - -                                             ",
"                                                    - - - - - - - - - - - -                                                     ",
"                                                                                                                                "
};
