/* XPM */
static char *_1b9cec2f98e4ea6c233049fbda91ea7bd6z3V1TsYLK0bWY[] = {
/* columns rows colors chars-per-pixel */
"16 16 60 1 ",
"  c None",
". c #BE1E09",
"X c #BE1F0A",
"o c #BE200B",
"O c #BF210C",
"+ c #BF220D",
"@ c #BF230E",
"# c #BF230F",
"$ c #C0240F",
"% c #C02510",
"& c #C02511",
"* c #C02712",
"= c #C02713",
"- c #C12914",
"; c #C12915",
": c #C12A16",
"> c #C22C18",
", c #C32E1B",
"< c #C32F1B",
"1 c #C3301C",
"2 c #C43421",
"3 c #C94331",
"4 c #CB4A39",
"5 c #CC4E3E",
"6 c #CC503F",
"7 c #D05D4E",
"8 c #D46C5E",
"9 c #D56F61",
"0 c #D67062",
"q c #D97B6E",
"w c #D97B6F",
"e c #DA8074",
"r c #DC8579",
"t c #DC867B",
"y c #DE8B80",
"u c #DE8F84",
"i c #DF8F84",
"p c #DF9085",
"a c #E39F96",
"s c #E5A49B",
"d c #E5A79E",
"f c #E8AFA7",
"g c #EAB8B1",
"h c #EBB9B2",
"j c #EDC1BC",
"k c #EEC4BF",
"l c #EFC6C1",
"z c #F2D3CF",
"x c #F3D4D0",
"c c #F9E9E7",
"v c #FAEFEE",
"b c #FBF0EF",
"n c #FBF1EF",
"m c #FBF2F0",
"M c #FBF3F2",
"N c #FDF8F7",
"B c #FDF8F8",
"V c #FEFCFB",
"C c #FFFEFE",
"Z c white",
/* pixels */
"      ++++      ",
"    ++++++++    ",
"   ++++++++++   ",
"  ++++-*++--#+  ",
" +++.5k9+qk0+++ ",
" ++$.rZ8rma,+++ ",
"+++1pznhvp-+++++",
"++o2zZZBw*++++++",
"++++0BcNy$++++++",
"+++.wBqgm7.+++++",
" +++fm35ml,++++ ",
" ++-dd,#ij4X+++ ",
"  ++-=++*-*+++  ",
"   ++++++++++   ",
"    ++++++++    ",
"      ++++      "
};
