/* XPM */
static char *e58c67df1209470dce875eb86bd159d4ukVwP0UQWbeDAWId[] = {
/* columns rows colors chars-per-pixel */
"32 32 117 2 ",
"   c None",
".  c #BD1C07",
"X  c #BD1D07",
"o  c #BE1E08",
"O  c #BE1E09",
"+  c #BE1F0A",
"@  c #BE200A",
"#  c #BE200B",
"$  c #BF200B",
"%  c #BF210B",
"&  c #BF210C",
"*  c #BF220D",
"=  c #BF220E",
"-  c #BF230E",
";  c #BF230F",
":  c #C0240F",
">  c #C02612",
",  c #C02713",
"<  c #C12814",
"1  c #C12914",
"2  c #C12A16",
"3  c #C12B16",
"4  c #C22E1A",
"5  c #C32F1B",
"6  c #C3301C",
"7  c #C3311D",
"8  c #C4321F",
"9  c #C43320",
"0  c #C43421",
"q  c #C53724",
"w  c #C63A28",
"e  c #C63B28",
"r  c #C63C29",
"t  c #C73D2A",
"y  c #C73E2B",
"u  c #C73F2D",
"i  c #C8402E",
"p  c #CB4A39",
"a  c #CB4C3B",
"s  c #CC5040",
"d  c #CD5242",
"f  c #CE5646",
"g  c #D16051",
"h  c #D16152",
"j  c #D26253",
"k  c #D26354",
"l  c #D26456",
"z  c #D46B5D",
"x  c #D46C5E",
"c  c #D56E60",
"v  c #D56F61",
"b  c #D8776B",
"n  c #D8796C",
"m  c #D97C70",
"M  c #D97D70",
"N  c #DB8175",
"B  c #DB8276",
"V  c #DC8579",
"C  c #DC887C",
"Z  c #DD897E",
"A  c #DF9186",
"S  c #DF9187",
"D  c #E09288",
"F  c #E0958B",
"G  c #E1968C",
"H  c #E1988E",
"J  c #E1988F",
"K  c #E2998F",
"L  c #E3A097",
"P  c #E4A198",
"I  c #E4A299",
"U  c #E4A29A",
"Y  c #E4A39A",
"T  c #E6AAA2",
"R  c #E7ADA5",
"E  c #E7ADA6",
"W  c #E9B2AA",
"Q  c #EAB7B0",
"!  c #EAB8B1",
"~  c #ECBDB7",
"^  c #EDC1BB",
"/  c #EDC2BC",
"(  c #EDC3BD",
")  c #EEC3BE",
"_  c #EFC7C2",
"`  c #EFC8C3",
"'  c #F0CAC5",
"]  c #F2D4CF",
"[  c #F3D6D2",
"{  c #F4D9D5",
"}  c #F4D9D6",
"|  c #F4DAD7",
" . c #F7E3E1",
".. c #F7E4E2",
"X. c #F7E5E2",
"o. c #F8E5E3",
"O. c #F8E8E5",
"+. c #F8E8E6",
"@. c #F9EAE8",
"#. c #F9EBEA",
"$. c #FAEFEE",
"%. c #FBF1EF",
"&. c #FBF1F0",
"*. c #FBF2F0",
"=. c #FBF2F1",
"-. c #FBF3F2",
";. c #FCF5F4",
":. c #FDF8F7",
">. c #FDF8F8",
",. c #FDF9F8",
"<. c #FDF9F9",
"1. c #FDFAF9",
"2. c #FEFAFA",
"3. c #FEFCFC",
"4. c #FEFDFD",
"5. c #FFFEFE",
"6. c white",
/* pixels */
"                            * * *                               ",
"                      * * * * * * * * * *                       ",
"                * * * * * * * * * * * * * * * *                 ",
"              * * * * * * * * * * * * * * * * * *               ",
"            * * * * * * * * * * * * * * * * * * * *             ",
"          * * * * * * * * * * * * * * * * * * * * * *           ",
"        * * * * * * * * * * * * * * * * * * * * * * * *         ",
"      * * * * * * * * * $ $ $ : * * * $ $ $ $ * * * * * *       ",
"    * * * * * * * * $ a Y Y G q o * * l Y Y I l ; * * * * *     ",
"    * * * * * * * * * G 4.4.} 9 : : x #.4.4.Q w * * * * * *     ",
"    * * * * * * * * 1 ^ 4.4.R * * b %.4.4.T 9 * * * * * * *     ",
"  * * * * * * * o o t  .4.4.M : Z ;.4.3.I 5 o * * * * * * * *   ",
"  * * * * * * < h p x <.4.-.h K <.4.<.G 1 * * * * * * * * * *   ",
"  * * * * * * 7 [ *.@.4.4.@.) 4.4.-.V , * * * * * * * * * * *   ",
"  * * * * * * 7 [ 4.4.4.4.4.4.4.o.v * * * * * * * * * * * * *   ",
"* * * * * * $ 5 _ 4.4.4.4.4.4.-.l o * * * * * * * * * * * * * * ",
"* * * * * * * ; i D 4.4.4.4.4.4.K , $ * * * * * * * * * * * * * ",
"* * * * * * * * o B 4.4.+.) 4.4.:.b $ * * * * * * * * * * * *   ",
"  * * * * * * * : W 4.4.~ i ` 4.4.o.a o * * * * * * * * * * *   ",
"  * * * * * * * 0 } 4.4.A X f #.4.4.! 1 * * * * * * * * * * *   ",
"  * * * * * * o d -.4.<.l o * D 4.4.<.v $ * * * * * * * * * *   ",
"    * * * * * o M 4.4.o.u o + e | 4.4.' 7 * * * * * * * * *     ",
"    * * * * * * E 4.4._ < * : + Z 4.4.4.c o * * * * * * * *     ",
"    * * * * * < B Y Y z * * * o e K Y Y c * * * * * * * * *     ",
"      * * * * * * + : o : * * * * o o * * * * * * * * * *       ",
"        * * * * * * * * * * * * * * : * * * * * * * * *         ",
"          * * * * * * * * * * * * * * * * * * * * * *           ",
"            * * * * * * * * * * * * * * * * * * * *             ",
"              * * * * * * * * * * * * * * * * * *               ",
"                * * * * * * * * * * * * * * * *                 ",
"                      * * * * * * * * * *                       ",
"                              * * *                             "
};
